<svg width="200" height="234" viewBox="0 0 200 234" fill="none" xmlns="http://www.w3.org/2000/svg">
<path d="M117.661 234L99.391 149.5L94.5189 104H118.879L146.407 213.571L138.611 234H117.661ZM25.0914 234L0 104H47.9903L58.2217 212.457L62.363 234H25.0914ZM59.4397 234L52.8624 213.571L80.877 104H105.481L101.827 149.5L82.095 234H59.4397ZM135.688 234L141.047 212.457L152.01 104H200L174.665 234H135.688Z" fill="white"/>
<path d="M188 21C188 26.7556 185.927 31.6944 181.781 35.8167C177.636 39.9389 172.668 42 166.88 42C161.092 42 156.124 39.9389 151.979 35.8167C147.833 31.6944 145.76 26.7556 145.76 21C145.76 15.2444 147.833 10.3056 151.979 6.18333C156.124 2.06111 161.092 -2.2205e-07 166.88 -2.2205e-07C170.713 -2.2205e-07 174.233 0.972225 177.44 2.91667C180.647 4.78334 183.228 7.31111 185.184 10.5C187.061 13.6111 188 17.1111 188 21ZM54.24 21C54.24 26.7556 52.1671 31.6944 48.0213 35.8167C43.8756 39.9389 38.9084 42 33.12 42C27.3316 42 22.3644 39.9389 18.2187 35.8167C14.0729 31.6944 12 26.7556 12 21C12 15.2444 14.0729 10.3056 18.2187 6.18333C22.3644 2.06111 27.3316 -2.2205e-07 33.12 -2.2205e-07C36.9529 -2.2205e-07 40.4729 0.972225 43.68 2.91667C46.8871 4.78334 49.4684 7.31111 51.424 10.5C53.3013 13.6111 54.24 17.1111 54.24 21Z" fill="white"/>
</svg>
